<?xml version="1.0" encoding="UTF-8" standalone="no"?>
<svg width="37mm" height="34mm" viewBox="0 0 131.10237 120.47243" id="svg4817" version="1.1" inkscape:version="1.1.2 (0a00cf5339, 2022-02-04)" sodipodi:docname="logosquare.svg" xmlns:inkscape="http://www.inkscape.org/namespaces/inkscape" xmlns:sodipodi="http://sodipodi.sourceforge.net/DTD/sodipodi-0.dtd" xmlns="http://www.w3.org/2000/svg" xmlns:svg="http://www.w3.org/2000/svg" xmlns:rdf="http://www.w3.org/1999/02/22-rdf-syntax-ns#" xmlns:cc="http://creativecommons.org/ns#" xmlns:dc="http://purl.org/dc/elements/1.1/">
  <defs id="defs4819"/>
  <sodipodi:namedview id="base" pagecolor="#ffffff" bordercolor="#666666" borderopacity="1.0" inkscape:pageopacity="0.0" inkscape:pageshadow="2" inkscape:zoom="2.8" inkscape:cx="128.92857" inkscape:cy="47.142857" inkscape:document-units="px" inkscape:current-layer="layer1" showgrid="false" inkscape:window-width="2560" inkscape:window-height="1411" inkscape:window-x="0" inkscape:window-y="0" inkscape:window-maximized="1" inkscape:pagecheckerboard="0" width="34mm"/>
  <metadata id="metadata4822">
    <rdf:RDF>
      <cc:Work rdf:about="">
        <dc:format>image/svg+xml</dc:format>
        <dc:type rdf:resource="http://purl.org/dc/dcmitype/StillImage"/>
      </cc:Work>
    </rdf:RDF>
  </metadata>
  <g inkscape:label="Ebene 1" inkscape:groupmode="layer" id="layer1" transform="translate(0,-931.88977)">
    <g style="font-style:normal;font-variant:normal;font-weight:normal;font-stretch:normal;font-size:72px;line-height:125%;font-family:'Zero Threes';-inkscape-font-specification:'Zero Threes';letter-spacing:0px;word-spacing:0px;fill:#ff5600;fill-opacity:1;stroke:none" id="text2985">
      <path d="M 72.68,938.35418 17.96,1047.3622 H 5 L 59.576,938.35418 Z" style="font-size:144px;letter-spacing:-45px" id="path5485"/>
      <path d="m 99.39875,938.35418 -54.72,109.00802 h -12.96 l 54.576,-109.00802 z" style="font-size:144px;letter-spacing:-45px" id="path5487"/>
      <path d="m 126.1175,938.35418 -54.72,109.00802 h -12.96 l 54.576,-109.00802 z" style="font-size:144px;letter-spacing:-45px" id="path5489"/>
    </g>
    <path style="fill:#ff5600;fill-opacity:1" d="m 122.30729,1038.88 a 8.4821434,8.4821434 0 0 1 -8.48214,8.4821 8.4821434,8.4821434 0 0 1 -8.48214,-8.4821 8.4821434,8.4821434 0 0 1 8.48214,-8.4821 8.4821434,8.4821434 0 0 1 8.48214,8.4821 z" id="path3769"/>
    <path style="fill:#ff5600;fill-opacity:1" d="m 100.52156,1038.88 a 8.4821434,8.4821434 0 0 1 -8.482147,8.4821 8.4821434,8.4821434 0 0 1 -8.482143,-8.4821 8.4821434,8.4821434 0 0 1 8.482143,-8.4821 8.4821434,8.4821434 0 0 1 8.482147,8.4821 z" id="path3769-7"/>
  </g>
</svg>